<svg width="20" height="14" viewBox="0 0 20 14" version="1.1" xmlns="http://www.w3.org/2000/svg" xmlns:xlink="http://www.w3.org/1999/xlink">
<title>5a57fdf5bca20f000114c3a3_hide</title>
<desc>Created using Figma</desc>
<g id="Canvas" transform="translate(-3889 -7072)">
<g id="5a57fdf5bca20f000114c3a3_hide">
<g id="Shape">
<use xlink:href="#path0_fill" transform="translate(3889 7072)" fill="#FFFFFF"/>
</g>
<g id="Shape">
<use xlink:href="#path1_fill" transform="translate(3897 7077)" fill="#FFFFFF"/>
</g>
</g>
</g>
<defs>
<path id="path0_fill" fill-rule="evenodd" d="M 15.0266 1.55518C 17.7576 3.48584 19.7366 6.31104 19.8196 6.43018C 20.0586 6.77197 20.0586 7.22803 19.8206 7.56982C 19.7375 7.68896 17.7585 10.5142 15.0276 12.4448C 13.6116 13.4482 11.8254 14 9.99951 14C 8.17456 14 6.38843 13.4482 4.96948 12.4458C 2.23853 10.5151 0.261475 7.68994 0.178467 7.5708C -0.0595703 7.22803 -0.0595703 6.77295 0.178467 6.43018C 0.260498 6.31104 2.23755 3.48584 4.96948 1.55518C 6.38843 0.551758 8.17456 0 9.99951 0C 11.8254 0 13.6116 0.551758 15.0266 1.55518ZM 6.49951 7C 6.49951 8.93018 8.06543 10.5 9.99951 10.5C 11.9294 10.5 13.4995 8.93018 13.4995 7C 13.4995 5.06592 11.9294 3.5 9.99951 3.5C 8.06543 3.5 6.49951 5.06592 6.49951 7Z"/>
<path id="path1_fill" d="M 4 2C 4 3.102 3.102 4 2 4C 0.895 4 0 3.102 0 2C 0 0.895 0.895 0 2 0C 3.102 0 4 0.895 4 2Z"/>
</defs>
</svg>
